<svg xmlns="http://www.w3.org/2000/svg"  viewBox="0 0 64 64" width="64px" height="64px"><linearGradient id="3sFDkPhzs9deohMkw2t7qa" x1="32" x2="32" y1="9.809" y2="61.127" gradientUnits="userSpaceOnUse"><stop offset="0" stop-color="#1a6dff"/><stop offset="1" stop-color="#c822ff"/></linearGradient><path fill="url(#3sFDkPhzs9deohMkw2t7qa)" d="M30.988,58.001c-5.174,0-10.139-1.927-14.035-5.484c-4.212-3.846-6.673-9.122-6.931-14.858 c-0.35-7.789,3.521-15.14,10.104-19.185c0.386-0.262,0.925-0.291,1.371-0.053c0.44,0.234,0.714,0.689,0.714,1.188 c0.216,2.665,0.78,4.914,1.605,6.387c8.846-3.446,9.551-11.879,8.553-18.422c-0.007-0.05-0.011-0.1-0.011-0.15 c0-0.468,0.221-0.905,0.59-1.171c0.356-0.256,0.796-0.322,1.21-0.183c0.042,0.014,0.084,0.031,0.125,0.051 C43.814,10.845,54,21.136,54,35.857c0,12.404-9.684,22.121-22.046,22.121C31.631,57.993,31.309,58.001,30.988,58.001z M20.316,20.737c-5.452,3.78-8.598,10.126-8.296,16.831c0.233,5.202,2.464,9.986,6.281,13.472 c3.743,3.418,8.574,5.176,13.607,4.939C43.195,55.979,52,47.141,52,35.857c0-16.096-12.22-24.494-17.49-27.363 c1.142,9.867-2.609,16.809-10.645,19.615c-0.106,0.037-0.217,0.056-0.33,0.056h-0.16c-0.321,0-0.623-0.154-0.811-0.414 C21.194,25.853,20.583,23.054,20.316,20.737z M21.208,20.154c-0.014,0.009-0.027,0.018-0.041,0.025 C21.181,20.172,21.195,20.164,21.208,20.154z M20.214,19.689c0,0.019,0.001,0.039,0.005,0.061 C20.217,19.729,20.216,19.709,20.214,19.689z"/><g><linearGradient id="3sFDkPhzs9deohMkw2t7qb" x1="23.5" x2="23.5" y1="37" y2="48.571" gradientUnits="userSpaceOnUse"><stop offset="0" stop-color="#6dc7ff"/><stop offset="1" stop-color="#e6abff"/></linearGradient><path fill="url(#3sFDkPhzs9deohMkw2t7qb)" d="M31,52c-8.271,0-15-6.729-15-15h2c0,7.168,5.832,13,13,13V52z"/></g></svg>